<svg width="266" height="213" viewBox="0 0 266 213" fill="none" xmlns="http://www.w3.org/2000/svg">
    <path d="M67.74 68.9479L22.7186 106.5L67.74 144.052C68.6605 144.79 69.4247 145.704 69.988 146.74C70.5514 147.777 70.9025 148.916 71.0208 150.09C71.1391 151.264 71.0223 152.45 70.6772 153.579C70.3321 154.707 69.7656 155.755 69.0109 156.662C68.2562 157.569 67.3284 158.315 66.2818 158.859C65.2352 159.402 64.0908 159.731 62.9156 159.827C61.7405 159.922 60.5581 159.782 59.4377 159.415C58.3173 159.047 57.2813 158.46 56.3905 157.687L3.1894 113.312C2.19113 112.479 1.38799 111.436 0.836841 110.258C0.285689 109.08 0 107.795 0 106.495C0 105.194 0.285689 103.909 0.836841 102.731C1.38799 101.553 2.19113 100.51 3.1894 99.6775L56.3905 55.3026C58.1983 53.7961 60.5299 53.0702 62.8725 53.2845C65.215 53.4988 67.3766 54.6357 68.8816 56.4452C70.3867 58.2547 71.1119 60.5885 70.8978 62.9332C70.6837 65.2779 69.5478 67.4414 67.74 68.9479ZM262.811 99.6775L209.61 55.3026C208.714 54.5566 207.681 53.9945 206.569 53.6483C205.457 53.302 204.287 53.1784 203.128 53.2845C201.968 53.3906 200.84 53.7243 199.809 54.2667C198.778 54.809 197.864 55.5492 197.118 56.4452C195.613 58.2547 194.888 60.5885 195.102 62.9332C195.316 65.2779 196.452 67.4414 198.26 68.9479L243.281 106.5L198.26 144.052C197.34 144.79 196.575 145.704 196.012 146.74C195.449 147.777 195.098 148.916 194.979 150.09C194.861 151.264 194.978 152.45 195.323 153.579C195.668 154.707 196.234 155.755 196.989 156.662C197.744 157.569 198.672 158.315 199.718 158.859C200.765 159.402 201.909 159.731 203.084 159.827C204.26 159.922 205.442 159.782 206.562 159.415C207.683 159.047 208.719 158.46 209.61 157.687L262.811 113.312C263.809 112.479 264.612 111.436 265.163 110.258C265.714 109.08 266 107.795 266 106.495C266 105.194 265.714 103.909 265.163 102.731C264.612 101.553 263.809 100.51 262.811 99.6775ZM171.493 0.532793C170.399 0.135041 169.237 -0.043023 168.073 0.00876622C166.91 0.0605555 165.768 0.341186 164.713 0.83463C163.658 1.32808 162.711 2.02467 161.925 2.88464C161.139 3.74461 160.53 4.75112 160.133 5.84669L89.1978 201.096C88.7987 202.193 88.6195 203.357 88.6704 204.522C88.7213 205.688 89.0013 206.832 89.4944 207.889C89.9875 208.947 90.684 209.896 91.5441 210.683C92.4042 211.471 93.4109 212.081 94.5068 212.479C95.478 212.825 96.5016 213.001 97.5326 213C99.3536 213 101.13 212.439 102.622 211.393C104.113 210.347 105.246 208.867 105.867 207.154L176.802 11.9039C177.2 10.8083 177.377 9.64516 177.326 8.48079C177.274 7.31642 176.994 6.17366 176.501 5.11775C176.008 4.06184 175.312 3.11346 174.453 2.32677C173.593 1.54008 172.588 0.930487 171.493 0.532793Z" fill="white" fill-opacity="0.4"/>
</svg>
    