<svg width="1817" height="1251" viewBox="0 0 1817 1251" fill="none" xmlns="http://www.w3.org/2000/svg">
<path d="M0 76.6243V631.757C0 674.075 33.2251 708.381 74.2093 708.381H663.772C704.756 708.381 737.981 742.688 737.981 785.006V946.334C737.981 988.652 771.206 1022.96 812.19 1022.96H1320.7C1361.68 1022.96 1394.91 1057.27 1394.91 1099.58V1174.43C1394.91 1216.74 1428.13 1251.05 1469.12 1251.05H1742.86C1783.84 1251.05 1817.07 1216.74 1817.07 1174.43V76.6243C1817 34.3063 1783.78 0 1742.81 0H74.2093C33.2251 0 0 34.3063 0 76.6243Z" fill="black"/>
</svg>
